# xmcd CD database file
#
# Track frame offsets:
#	150
#	18810
#	35120
#	52325
#	66668
#	88143
#	109324
#	124722
#	140037
#	156212
#	188539
#
# Disc length: 3211 seconds
#
# Revision: 2
# Processed by: cddbd v1.5.2PL0 Copyright (c) Steve Scherf et al.
# Submitted via: CDex 1.51
#
DISCID=a40c890b
DTITLE=Ty Herndon - Steam
DYEAR=1999
DGENRE=Country
TTITLE0=Lookin' For The Good Life
TTITLE1=Steam
TTITLE2=Putting The Brakes On Time
TTITLE3=I Can't Do It All
TTITLE4=No Mercy
TTITLE5=In A New York Second
TTITLE6=That's What I Call Love
TTITLE7=Pray For Me
TTITLE8=A Love Like That
TTITLE9=You Can Leave Your Hat On
TTITLE10=Data Track
EXTD=YEAR: 1999
EXTT0=
EXTT1=
EXTT2=
EXTT3=
EXTT4=
EXTT5=
EXTT6=
EXTT7=
EXTT8=
EXTT9=
EXTT10=
PLAYORDER=
